<?xml version="1.0" standalone="no"?>
<!DOCTYPE svg PUBLIC "-//W3C//DTD SVG 20010904//EN"
 "http://www.w3.org/TR/2001/REC-SVG-20010904/DTD/svg10.dtd">
<svg version="1.0" xmlns="http://www.w3.org/2000/svg"
 width="250.000000pt" height="250.000000pt" viewBox="0 0 250.000000 250.000000"
 preserveAspectRatio="xMidYMid meet">
<metadata>
Created by potrace 1.13, written by Peter Selinger 2001-2015
</metadata>
<g transform="translate(0.000000,250.000000) scale(0.100000,-0.100000)"
fill="#000000" stroke="none">
<path d="M0 2292 l0 -209 26 -24 c23 -21 33 -23 106 -22 44 1 89 -2 99 -7 13
-7 22 -6 30 3 10 10 18 11 36 3 12 -6 23 -13 23 -16 0 -3 24 -5 53 -5 28 0 65
-6 80 -13 15 -8 35 -11 45 -7 9 4 63 6 120 6 105 -1 173 11 193 36 6 7 20 13
30 13 11 0 19 6 19 14 0 23 14 26 44 11 24 -13 26 -13 24 3 -2 9 -7 20 -13 24
-6 4 -2 8 9 8 15 0 17 5 12 28 -4 15 -13 32 -20 37 -18 14 -36 51 -35 72 0 10
3 13 6 6 2 -7 14 -13 25 -13 14 0 18 5 14 15 -7 21 23 32 35 14 7 -10 8 -5 3
13 -5 23 -3 26 15 21 12 -3 28 0 35 7 16 12 56 -2 56 -19 0 -5 16 -5 35 -1 34
8 36 6 107 -76 86 -101 105 -114 40 -26 -24 31 -24 33 -7 52 22 24 35 26 35 5
0 -8 9 -15 20 -15 11 0 72 -18 137 -39 79 -26 152 -43 221 -50 94 -10 167 -27
230 -52 13 -5 28 -7 33 -3 6 3 16 1 24 -6 7 -6 24 -12 37 -14 13 -1 39 -11 58
-21 19 -10 52 -19 73 -21 21 -1 44 -8 52 -14 15 -12 39 -5 30 9 -7 12 106 -16
159 -39 26 -11 50 -20 54 -20 4 0 23 -5 42 -10 19 -6 38 -10 43 -10 4 0 7 126
7 280 l0 280 -1250 0 -1250 0 0 -208z"/>
<path d="M480 1684 c-47 -7 -164 -25 -260 -39 -96 -15 -185 -28 -197 -31 l-23
-4 0 -805 0 -805 1250 0 1250 0 0 461 0 460 -102 -6 c-175 -10 -617 -25 -739
-25 l-116 0 -11 38 c-6 20 -23 50 -37 66 -14 16 -25 33 -25 38 0 4 -10 8 -21
8 -19 0 -98 19 -107 26 -2 1 10 17 27 35 24 25 28 35 19 42 -9 6 -10 10 -2 13
7 3 10 14 7 24 -4 14 0 20 11 20 9 0 16 5 16 10 0 6 -7 10 -15 10 -12 0 -13 4
-6 18 10 18 0 127 -14 164 -4 9 -27 24 -52 33 -40 15 -51 16 -96 4 -55 -15
-60 -23 -70 -110 -2 -23 -10 -45 -17 -49 -10 -6 -9 -13 3 -31 15 -21 15 -23
-4 -37 -13 -9 -18 -20 -14 -33 4 -10 7 -32 7 -49 1 -19 6 -30 15 -30 30 0 5
-22 -50 -45 -56 -23 -93 -26 -91 -9 1 5 16 63 34 129 30 108 32 128 27 217 -6
107 -6 107 -95 202 l-46 49 -155 29 c-172 31 -180 31 -301 12z m415 -83 c83
-39 137 -117 151 -218 7 -59 -27 -225 -54 -255 -13 -16 -34 -18 -157 -18 -102
0 -145 4 -152 13 -6 6 -20 38 -32 71 l-22 58 26 34 c32 41 23 67 -9 29 -20
-23 -24 -24 -30 -10 -13 34 -6 140 13 181 50 110 168 161 266 115z m6 -598 c1
-16 1 -36 0 -45 -2 -14 5 -18 29 -18 28 0 30 -2 24 -27 -17 -69 -18 -69 -106
-86 -46 -8 -84 -14 -86 -12 -2 2 -14 64 -37 188 l-4 27 89 0 90 0 1 -27z m63
-639 c23 -9 23 -195 1 -214 -13 -11 -18 -10 -30 6 -8 10 -15 28 -15 39 -1 16
-4 14 -15 -10 -16 -37 -16 -40 -20 74 -4 93 5 107 23 41 9 -30 10 -31 11 -9 1
20 21 79 28 79 1 0 8 -3 17 -6z"/>
</g>
</svg>
